<?xml version="1.0" encoding="utf-8"?>
<!-- Generator: Adobe Illustrator 19.2.1, SVG Export Plug-In . SVG Version: 6.00 Build 0)  -->
<svg version="1.1" id="Layer_1" xmlns="http://www.w3.org/2000/svg" xmlns:xlink="http://www.w3.org/1999/xlink" x="0px" y="0px"
	 viewBox="0 0 250 250" style="enable-background:new 0 0 250 250;" xml:space="preserve">
<style type="text/css">
	.st0{fill:#F2F2F2;}
	.st1{fill:#017DBA;}
</style>
<g>
	<circle class="st0" cx="129" cy="130" r="109.1"/>
	<path class="st1" d="M85,113.9h102.1v50.8H85V113.9z M76.7,173h118.6v-67.3H76.7V173z"/>
	<polygon class="st1" points="74.3,159 67.7,159 67.7,96.7 181.3,96.7 181.3,103.2 74.3,103.2 	"/>
	<path class="st1" d="M134,163.4h5v-4.3c8.8-0.8,12.5-5.7,12.5-11.4c0-7.3-5.4-9.8-12.6-11.5v-10.1c2.6,0.7,4.2,2.5,5.7,4.7l5.6-4
		c-2.3-3.3-5.4-6.1-11.1-6.8v-3.7h-5v3.6c-7.3,0.6-12,4.8-12,11.3c0,7.4,6,9.6,12.2,11.2v11c-3.5-0.7-5.5-3.1-7.6-6l-5.6,3.6
		c2.5,4.1,6.3,7.6,13,8.2V163.4z M134.3,135c-3-0.9-4.6-2.1-4.6-4.7c0-2.3,1.5-4.1,4.6-4.6V135z M138.8,143.5c3.4,1,5,2.4,5,5
		c0,2.8-1.7,4.3-5,4.8V143.5z"/>
	<polygon class="st1" points="59.1,88 59.1,150.4 65.6,150.4 65.6,94.5 172.7,94.5 172.7,88 	"/>
</g>
</svg>
