<?xml version="1.0" encoding="utf-8"?>
<!-- Generator: Adobe Illustrator 19.2.1, SVG Export Plug-In . SVG Version: 6.00 Build 0)  -->
<svg version="1.1" id="Layer_1" xmlns="http://www.w3.org/2000/svg" xmlns:xlink="http://www.w3.org/1999/xlink" x="0px" y="0px"
	 viewBox="0 0 250 250" style="enable-background:new 0 0 250 250;" xml:space="preserve">
<style type="text/css">
	.st0{fill:#F2F2F2;}
	.st1{fill:#017DBA;}
</style>
<g>
	<circle class="st0" cx="125.5" cy="126" r="109.1"/>
	<path class="st1" d="M129.6,96.7c-3.3-8-11.1-13.6-20.3-13.6c-12.1,0-21.9,9.8-21.9,21.9c0,1.1,0.1,2.2,0.2,3.3
		c1.9-11.3,11.8-19.9,23.7-19.9C118.7,88.4,125.2,91.6,129.6,96.7"/>
	<path class="st1" d="M170,157.6l-18.8-20.9c-3.3-3.6-8.2-4.6-12.2-2.8l-5-5.5c5.4-5.9,8.7-13.8,8.7-22.5
		c0-18.4-14.9-33.3-33.3-33.3S76,87.6,76,106c0,18.4,14.9,33.3,33.3,33.3c7.5,0,14.4-2.5,19.9-6.6l5,5.5c-2.1,3.7-1.5,8.8,1.8,12.3
		l18.9,20.9c4,4.4,10.5,4.9,14.6,1.2l0.4-0.4C174,168.6,174,162,170,157.6 M82.1,106c0-15,12.2-27.2,27.2-27.2s27.2,12.2,27.2,27.2
		c0,15-12.2,27.2-27.2,27.2S82.1,121,82.1,106"/>
</g>
</svg>
